<svg xmlns="http://www.w3.org/2000/svg" viewBox="0 0 1200 630" role="img" aria-labelledby="title desc">
  <title id="title">Контур Знаний</title>
  <desc id="desc">Обложка проекта Контур Знаний</desc>
  <defs>
    <linearGradient id="bg" x1="0" y1="0" x2="1" y2="1">
      <stop offset="0%" stop-color="#0f172a"/>
      <stop offset="100%" stop-color="#1e293b"/>
    </linearGradient>
    <linearGradient id="accent" x1="0" y1="0" x2="1" y2="0">
      <stop offset="0%" stop-color="#22d3ee"/>
      <stop offset="100%" stop-color="#38bdf8"/>
    </linearGradient>
  </defs>
  <rect width="1200" height="630" fill="url(#bg)"/>
  <circle cx="1040" cy="110" r="220" fill="#0ea5e9" opacity="0.14"/>
  <circle cx="220" cy="520" r="260" fill="#14b8a6" opacity="0.12"/>
  <g transform="translate(88 90)">
    <rect x="0" y="0" width="150" height="118" rx="24" fill="#0b1220" stroke="#475569"/>
    <g transform="translate(23 32)" fill="url(#accent)">
      <rect x="0" y="18" width="12" height="16" rx="3"/>
      <path d="M24 0h34v20h-14c-10 0-18 8-18 18v24H2V18c0-10 8-18 18-18z"/>
      <path d="M62 62H38c0-12 7-19 18-28 11-9 15-14 15-24h22c0 13-5 22-16 31-10 8-15 11-15 21z"/>
      <path d="M78 62V38c0-10 8-18 18-18h14V0h22v44c0 10-8 18-18 18H78z"/>
      <rect x="136" y="18" width="12" height="16" rx="3"/>
    </g>
  </g>
  <text x="88" y="285" font-family="Inter, Segoe UI, Arial, sans-serif" font-size="72" font-weight="700" fill="#f8fafc">
    Контур Знаний
  </text>
  <text x="88" y="340" font-family="Inter, Segoe UI, Arial, sans-serif" font-size="32" fill="#cbd5e1">
    Личная DevOps-вики с поиском, wiki-ссылками и умным редактором
  </text>
  <g transform="translate(88 410)">
    <rect x="0" y="0" width="284" height="56" rx="14" fill="#0b1220" stroke="#334155"/>
    <text x="28" y="36" font-family="Inter, Segoe UI, Arial, sans-serif" font-size="24" fill="#67e8f9">Next.js + PostgreSQL</text>
    <rect x="304" y="0" width="244" height="56" rx="14" fill="#0b1220" stroke="#334155"/>
    <text x="332" y="36" font-family="Inter, Segoe UI, Arial, sans-serif" font-size="24" fill="#7dd3fc">Better Auth</text>
    <rect x="568" y="0" width="260" height="56" rx="14" fill="#0b1220" stroke="#334155"/>
    <text x="596" y="36" font-family="Inter, Segoe UI, Arial, sans-serif" font-size="24" fill="#99f6e4">Tiptap + Markdown</text>
  </g>
</svg>
